HIERARCHY
ROOT Hips
{
	OFFSET 0.00000 0.00000 0.00000
	CHANNELS 6 Xposition Yposition Zposition Zrotation Yrotation Xrotation 
	JOINT LHipJoint
	{
		OFFSET 0 0 0
		CHANNELS 3 Zrotation Yrotation Xrotation
		JOINT LeftHip
		{
			OFFSET 1.54859 -1.61379 0.86856
			CHANNELS 3 Zrotation Yrotation Xrotation
			JOINT LeftKnee
			{
				OFFSET 2.25087 -6.18423 0.00000
				CHANNELS 3 Zrotation Yrotation Xrotation
				JOINT LeftAnkle
				{
					OFFSET 2.40328 -6.60297 0.00000
					CHANNELS 3 Zrotation Yrotation Xrotation
					JOINT LeftToe
					{
						OFFSET 0.17435 -0.47901 2.02453
						CHANNELS 3 Zrotation Yrotation Xrotation
						End Site
						{
							OFFSET 0.00000 -0.00000 1.04844
						}
					}
				}
			}
		}
	}
	JOINT RHipJoint
	{
		OFFSET 0 0 0
		CHANNELS 3 Zrotation Yrotation Xrotation
		JOINT RightHip
		{
			OFFSET -1.54669 -1.61379 0.86856
			CHANNELS 3 Zrotation Yrotation Xrotation
			JOINT RightKnee
			{
				OFFSET -2.28132 -6.26789 0.00000
				CHANNELS 3 Zrotation Yrotation Xrotation
				JOINT RightAnkle
				{
					OFFSET -2.51636 -6.91365 0.00000
					CHANNELS 3 Zrotation Yrotation Xrotation
					JOINT RightToe
					{
						OFFSET -0.15124 -0.41552 2.21090
						CHANNELS 3 Zrotation Yrotation Xrotation
						End Site
						{
							OFFSET -0.00000 -0.00000 1.13399
						}
					}
				}
			}
		}
	}
	JOINT lowerback
	{
		OFFSET 0 0 0
		CHANNELS 3 Zrotation Yrotation Xrotation
		JOINT Chest
		{
			OFFSET -0.04287 2.26161 -0.25690
			CHANNELS 3 Zrotation Yrotation Xrotation
			JOINT Chest2
			{
				OFFSET 0.02248 2.28395 -0.10140
				CHANNELS 3 Zrotation Yrotation Xrotation
				JOINT lowerneck
				{
					OFFSET 0 0 0
					CHANNELS 3 Zrotation Yrotation Xrotation
					JOINT Neck
					{
						OFFSET -0.11644 1.38496 0.11345
						CHANNELS 3 Zrotation Yrotation Xrotation
						JOINT Head
						{
							OFFSET 0.29383 1.36600 0.06642
							CHANNELS 3 Zrotation Yrotation Xrotation
							End Site
							{
								OFFSET 0.11075 1.41395 -0.00294
							}
						}
					}
				}
				JOINT LeftCollar
				{
					OFFSET 0 0 0
					CHANNELS 3 Zrotation Yrotation Xrotation
					JOINT LeftShoulder
					{
						OFFSET 3.51628 0.59542 -0.30346
CHANNELS 3 Zrotation Xrotation Yrotation
						JOINT LeftElbow
						{
OFFSET 0 -4.764050 0.000000
CHANNELS 3 Zrotation Xrotation Yrotation
							JOINT LeftWrist
							{
OFFSET 0 -3.137590 -0.000000
CHANNELS 3 Zrotation Xrotation Yrotation
								JOINT lhand
								{
									OFFSET 0 0 0
CHANNELS 3 Zrotation Xrotation Yrotation
									JOINT LFingers
									{
OFFSET 0 -0.732260 -0.000000
CHANNELS 3 Zrotation Xrotation Yrotation
										End Site
										{
OFFSET 0 -0.590370 -0.000000
										}
									}
								}
								JOINT LThumb
								{
OFFSET 0 0.000000 0.000000
CHANNELS 3 Zrotation Xrotation Yrotation
									End Site
									{
OFFSET 0 -0.599380 0.599380
									}
								}
							}
						}
					}
				}
				JOINT RightCollar
				{
					OFFSET 0 0 0
					CHANNELS 3 Zrotation Yrotation Xrotation
					JOINT RightShoulder
					{
						OFFSET -3.30990 0.84213 -0.36430
CHANNELS 3 Zrotation Xrotation Yrotation
						JOINT RightElbow
						{
OFFSET 0 -5.101610 -0.000000
CHANNELS 3 Zrotation Xrotation Yrotation
							JOINT RightWrist
							{
OFFSET 0 -3.232670 -0.000000
CHANNELS 3 Zrotation Xrotation Yrotation
								JOINT rhand
								{
									OFFSET 0 0 0
CHANNELS 3 Zrotation Xrotation Yrotation
									JOINT RFingers
									{
OFFSET 0 -0.702000 -0.000000
CHANNELS 3 Zrotation Xrotation Yrotation
										End Site
										{
OFFSET 0 -0.565970 -0.000000
										}
									}
								}
								JOINT RThumb
								{
OFFSET 0 0.000000 0.000000
CHANNELS 3 Zrotation Xrotation Yrotation
									End Site
									{
OFFSET 0 -0.574610 0.574610
									}
								}
							}
						}
					}
				}
			}
		}
	}
}
MOTION
Frames: 9
Frame Time: 0.008333333333333333
-34.401835 15.060234 -0.197176 174.119065 59.241579 -177.511720 0.000000 0.000000 0.000000 -21.651415 -11.269297 -27.498757 7.388218 15.650206 50.327707 0.804457 -14.992383 -17.892007 0.041396 1.301990 3.580269 0.000000 0.000000 0.000000 18.714969 -8.041632 -22.307971 -12.557772 -18.616462 67.746059 -0.141605 -8.130498 -14.092779 -1.779735 8.386526 -23.897431 -5.777835 5.089823 14.305158 -2.331789 6.726108 8.044773 -0.155252 3.538246 0.218702 -18.292563 -19.248846 12.302831 39.870302 -23.195438 -25.304134 16.187227 -13.703583 -1.253542 0.000000 0.000000 0.000000 4.237385 -24.379051 -45.388849 137.648134 -49.402239 99.792381 39.885867 1.237493 -33.775886 0.000000 0.000000 0.000000 -7.125000 0.000000 0.000000 11.750254 70.741530 -7.248373 0.000000 0.000000 0.000000 5.647811 -33.994116 84.014357 -97.390348 -59.791397 -66.395717 -26.020291 -11.131832 -24.074615 0.000000 0.000000 0.000000 7.125000 0.000000 0.000000 2.020716 3.558017 1.892513
-34.404227 15.038017 -0.181416 173.970788 58.771583 -177.638217 0.000000 0.000000 0.000000 -21.649031 -11.688077 -27.465482 7.449080 15.698620 50.553029 0.741268 -15.448554 -17.575714 0.095500 1.894147 5.216433 0.000000 0.000000 0.000000 18.690870 -8.408765 -22.579245 -12.671654 -18.660313 68.102572 -0.130117 -7.975552 -13.719485 -1.515177 7.752471 -21.975276 -5.711276 4.946683 14.611001 -2.368935 6.536905 8.081516 -0.228655 3.454787 0.115862 -18.160167 -19.274395 12.454091 39.976737 -23.033664 -26.027779 16.346065 -13.664516 -1.521575 0.000000 0.000000 0.000000 3.938221 -23.256642 -45.270622 137.298259 -49.591583 99.526644 39.049781 0.158912 -34.404318 0.000000 0.000000 0.000000 -7.125000 0.000000 0.000000 10.063548 71.153134 -6.278784 0.000000 0.000000 0.000000 5.260774 -33.187169 83.981835 -96.391132 -59.843949 -65.531966 -26.061619 -11.510952 -24.160374 0.000000 0.000000 0.000000 7.125000 0.000000 0.000000 2.006618 3.458132 1.883218
-34.389461 15.015839 -0.164682 173.918232 58.991214 -177.645983 0.000000 0.000000 0.000000 -21.507155 -11.438795 -27.508462 7.505168 15.742909 50.760091 0.654753 -16.204139 -17.207023 0.223732 3.017230 8.328797 0.000000 0.000000 0.000000 18.753088 -8.101281 -22.624536 -12.774799 -18.699249 68.424513 -0.092651 -7.856358 -12.958131 -1.168780 6.859223 -19.300150 -5.891283 5.060420 14.648717 -2.398703 6.660706 8.070841 -0.185653 3.512860 0.067421 -18.125640 -19.265781 12.609797 40.036722 -22.900215 -26.557872 16.478258 -13.624793 -1.724794 0.000000 0.000000 0.000000 3.861600 -22.072677 -44.779495 137.367419 -49.554351 99.579248 36.934145 -2.535603 -35.728079 0.000000 0.000000 0.000000 -7.125000 0.000000 0.000000 5.752892 71.881980 -3.662596 0.000000 0.000000 0.000000 4.945497 -32.268422 83.961329 -95.346759 -59.891006 -64.628737 -25.899742 -11.850433 -24.330476 0.000000 0.000000 0.000000 7.125000 0.000000 0.000000 2.128085 3.309549 2.003137
-34.372086 14.999602 -0.149550 173.747060 59.082603 -177.717883 0.000000 0.000000 0.000000 -21.456265 -11.279478 -27.622029 7.553179 15.780541 50.936861 0.588739 -16.717098 -16.917848 0.376087 3.938225 10.903017 0.000000 0.000000 0.000000 18.763292 -7.895494 -22.765403 -12.881479 -18.738959 68.756888 -0.075553 -7.827774 -12.621989 -1.008616 6.389644 -17.919476 -6.046921 5.130578 14.721005 -2.470217 6.720487 8.008948 -0.196038 3.541319 -0.044512 -18.141764 -19.309631 12.660455 40.027303 -22.911880 -26.860911 16.510759 -13.634436 -1.812174 0.000000 0.000000 0.000000 3.951237 -20.890359 -44.002467 137.598629 -49.429089 99.754823 33.826460 -6.674274 -37.450661 0.000000 0.000000 0.000000 -7.125000 0.000000 0.000000 -0.771523 72.655594 0.505733 0.000000 0.000000 0.000000 4.705705 -31.223859 83.780764 -94.320636 -59.929216 -63.740873 -26.001961 -12.356644 -24.372716 0.000000 0.000000 0.000000 7.125000 0.000000 0.000000 2.071214 3.243723 1.952053
-34.352196 14.986717 -0.131735 173.360506 59.157146 -178.037850 0.000000 0.000000 0.000000 -21.558741 -11.065101 -27.736265 7.588116 15.807782 51.065107 0.570579 -16.914526 -16.867605 0.427454 4.194804 11.625536 0.000000 0.000000 0.000000 18.643262 -7.720463 -22.846432 -12.984387 -18.776490 69.077028 -0.099940 -7.713624 -12.909786 -0.869906 5.944285 -16.623698 -6.397241 5.220515 14.863606 -2.506364 6.778340 7.958705 -0.070991 3.564581 -0.203544 -17.936640 -19.475754 12.658984 39.752218 -23.086045 -27.142914 16.363747 -13.713304 -1.927881 0.000000 0.000000 0.000000 3.887676 -19.477490 -44.632715 136.016438 -50.257543 98.544744 35.764420 -2.535895 -37.077078 0.000000 0.000000 0.000000 -7.125000 0.000000 0.000000 2.866670 72.924106 -1.901886 0.000000 0.000000 0.000000 4.382106 -30.225390 83.643610 -93.276074 -59.958878 -62.836752 -26.204664 -13.258085 -24.454178 0.000000 0.000000 0.000000 7.125000 0.000000 0.000000 1.958361 3.114958 1.850183
-34.337070 14.971487 -0.124055 172.773543 58.828149 -178.488649 0.000000 0.000000 0.000000 -21.849828 -11.280506 -27.769809 7.622750 15.834644 51.192068 0.562855 -17.011674 -16.852981 0.402969 4.074311 11.285963 0.000000 0.000000 0.000000 18.318587 -8.010155 -23.075235 -13.097051 -18.816820 69.426511 -0.118579 -7.561963 -13.048071 -0.875037 5.963572 -16.678903 -6.610073 5.133940 14.942908 -2.592803 6.638734 7.959433 -0.029814 3.495580 -0.246415 -17.451623 -19.711983 12.601475 39.304026 -23.301427 -27.443823 16.108893 -13.812136 -2.108626 0.000000 0.000000 0.000000 3.705079 -18.263594 -44.993507 134.702491 -50.909638 97.529477 37.252556 -0.370826 -36.714764 0.000000 0.000000 0.000000 -7.125000 0.000000 0.000000 5.782861 73.044241 -3.850530 0.000000 0.000000 0.000000 4.062894 -29.352915 83.560227 -92.071413 -59.982338 -61.793780 -26.215655 -13.978855 -24.543505 0.000000 0.000000 0.000000 7.125000 0.000000 0.000000 1.963712 3.017351 1.858727
-34.316729 14.958778 -0.118139 172.393195 58.645880 -178.791164 0.000000 0.000000 0.000000 -22.024023 -11.285753 -27.795004 7.664235 15.866607 51.343996 0.565323 -17.146724 -16.936872 0.362880 3.867606 10.704750 0.000000 0.000000 0.000000 18.108815 -8.205370 -23.191408 -13.191862 -18.850285 69.720273 -0.119501 -7.566824 -13.069697 -0.982846 6.305087 -17.673945 -6.701203 5.089607 14.971022 -2.710244 6.577240 7.978965 -0.093454 3.468860 -0.230697 -16.950293 -19.901446 12.606724 38.989296 -23.395224 -27.885750 15.963827 -13.868747 -2.349753 0.000000 0.000000 0.000000 3.691838 -17.094332 -45.369790 133.629493 -51.419672 96.693945 39.132174 0.318895 -35.806996 0.000000 0.000000 0.000000 -7.125000 0.000000 0.000000 9.705492 72.696871 -6.383852 0.000000 0.000000 0.000000 3.883236 -28.452685 83.385504 -90.793972 -59.995593 -60.687600 -26.169763 -14.436466 -24.633401 0.000000 0.000000 0.000000 7.125000 0.000000 0.000000 2.003784 2.931046 1.899881
-34.296549 14.947044 -0.107633 172.445292 58.600714 -178.687559 0.000000 0.000000 0.000000 -21.897745 -11.147539 -27.980083 7.729315 15.916381 51.581533 0.568532 -17.370116 -17.069713 0.349310 3.797345 10.507280 0.000000 0.000000 0.000000 18.216932 -8.193243 -23.321417 -13.272657 -18.878371 69.970257 -0.116223 -7.669380 -13.136157 -1.044880 6.500692 -18.244227 -6.640818 5.070918 14.974303 -2.772601 6.562965 7.980464 -0.188699 3.465874 -0.216891 -16.615239 -20.012253 12.669489 38.856496 -23.365770 -28.462893 15.962171 -13.872829 -2.609894 0.000000 0.000000 0.000000 3.845334 -15.891450 -45.485897 132.715529 -51.837682 95.977543 39.801694 0.497084 -35.490574 0.000000 0.000000 0.000000 -7.125000 0.000000 0.000000 11.114142 72.581239 -7.301589 0.000000 0.000000 0.000000 3.710251 -27.549673 83.235303 -89.577384 -59.997662 -59.634047 -26.217812 -14.909693 -24.702577 0.000000 0.000000 0.000000 7.125000 0.000000 0.000000 1.983932 2.847179 1.884073
-34.278092 14.933689 -0.091487 172.669409 58.651175 -178.375095 0.000000 0.000000 0.000000 -21.609163 -10.974186 -28.346845 7.824187 15.988218 51.926566 0.574038 -17.656158 -17.250565 0.348966 3.795356 10.501748 0.000000 0.000000 0.000000 18.486365 -7.979142 -23.524649 -13.350304 -18.904978 70.210118 -0.116557 -7.776771 -13.269543 -1.048615 6.511880 -18.277109 -6.602036 5.074405 14.914063 -2.763848 6.577053 7.987202 -0.196542 3.471977 -0.176427 -16.476459 -20.080327 12.702124 38.842426 -23.291792 -29.109203 16.039503 -13.847706 -2.841264 0.000000 0.000000 0.000000 4.081564 -14.652333 -45.509802 131.892212 -52.201703 95.328672 40.059535 0.669920 -35.438429 0.000000 0.000000 0.000000 -7.125000 0.000000 0.000000 11.620628 72.608260 -7.642280 0.000000 0.000000 0.000000 3.437744 -26.737510 83.176347 -88.336956 -59.987407 -58.559880 -26.246183 -15.390779 -24.777357 0.000000 0.000000 0.000000 7.125000 0.000000 0.000000 1.976825 2.761475 1.880539
